<?xml version="1.0" encoding="UTF-8"?>
<svg version="1.1" xmlns="http://www.w3.org/2000/svg" width="128" height="128">
<path d="M0 0 C8.26275315 7.08593679 14.67549326 15.61422242 18.265625 25.9609375 C18.265625 26.6209375 18.265625 27.2809375 18.265625 27.9609375 C19.3484375 28.05375 19.3484375 28.05375 20.453125 28.1484375 C24.14361135 29.214578 25.76135229 31.10884914 28.265625 33.9609375 C30.00021936 37.43012622 29.73736377 41.16790282 29.265625 44.9609375 C27.2606162 48.7635404 25.83876238 50.57884591 22.265625 52.9609375 C20.945625 52.9609375 19.625625 52.9609375 18.265625 52.9609375 C18.15154297 54.07154541 18.03746094 55.18215332 17.91992188 56.32641602 C17.28680874 61.36595511 16.06992088 66.20252387 14.796875 71.11328125 C14.55650513 72.05401993 14.31613525 72.99475861 14.06848145 73.96400452 C13.56315796 75.93697859 13.05543019 77.90933829 12.54541016 79.88110352 C11.76212942 82.91196345 10.98796035 85.94504892 10.21484375 88.97851562 C9.72188945 90.89857501 9.22841845 92.81850183 8.734375 94.73828125 C8.38590515 96.10375343 8.38590515 96.10375343 8.03039551 97.49681091 C7.81347046 98.33180618 7.59654541 99.16680145 7.37304688 100.02709961 C7.18286987 100.76463974 6.99269287 101.50217987 6.79675293 102.2620697 C6.265625 103.9609375 6.265625 103.9609375 5.265625 104.9609375 C2.77070112 105.05596166 0.30356486 105.08651316 -2.19165039 105.07446289 C-2.97208206 105.07460892 -3.75251373 105.07475494 -4.55659485 105.0749054 C-7.1484348 105.07420608 -9.74020378 105.06641286 -12.33203125 105.05859375 C-14.1242214 105.05672963 -15.91641206 105.0553057 -17.70860291 105.05430603 C-22.43508297 105.05048034 -27.16153252 105.04064962 -31.88800049 105.02960205 C-36.7072305 105.01938903 -41.52646542 105.01480865 -46.34570312 105.00976562 C-55.80860719 104.99902739 -65.27148856 104.98195036 -74.734375 104.9609375 C-77.97931854 96.51617073 -77.97931854 96.51617073 -78.98950195 92.15307617 C-79.19013748 91.30247116 -79.39077301 90.45186615 -79.5974884 89.57548523 C-79.90694649 88.24067863 -79.90694649 88.24067863 -80.22265625 86.87890625 C-80.68564637 84.95869402 -81.14987541 83.03878015 -81.61523438 81.11914062 C-82.33776603 78.12178055 -83.05264945 75.12344846 -83.74682617 72.11938477 C-84.4245932 69.19997396 -85.13328428 66.28954432 -85.84765625 63.37890625 C-86.04788895 62.47891403 -86.24812164 61.57892181 -86.454422 60.6516571 C-87.71970767 55.41117864 -87.71970767 55.41117864 -91.76635742 52.0012207 C-93.23552612 51.48628052 -93.23552612 51.48628052 -94.734375 50.9609375 C-97.35521095 48.68494839 -98.55201438 47.07370942 -99.1171875 43.625 C-99.30634905 39.42561368 -98.95521446 36.47943014 -97.296875 32.5859375 C-94.69972608 29.92544348 -93.77832973 29.5492078 -90.421875 28.4609375 C-84.99071631 26.35226577 -83.68136249 22.56941737 -81.39257812 17.45483398 C-75.89105035 5.38812884 -65.17823424 -3.3151179 -52.9921875 -8.26171875 C-34.91320621 -14.4861431 -15.30242422 -11.41123635 0 0 Z M-72.734375 12.9609375 C-75.3726721 16.63874798 -77.13258188 20.5006423 -78.8515625 24.671875 C-81.86889748 31.55455415 -81.86889748 31.55455415 -84.72265625 32.89453125 C-86.7157618 33.30626969 -88.72515175 33.63686923 -90.734375 33.9609375 C-92.95188408 35.5001839 -92.95188408 35.5001839 -93.734375 37.9609375 C-93.61226277 41.44113609 -93.39030746 43.94424219 -91.484375 46.8984375 C-89.04848873 48.37736845 -87.54990827 48.29612003 -84.734375 47.9609375 C-83.97125 47.6103125 -83.208125 47.2596875 -82.421875 46.8984375 C-77.76873147 45.2752479 -73.35990396 46.41909451 -68.734375 47.9609375 C-67.435 47.4659375 -67.435 47.4659375 -66.109375 46.9609375 C-61.37517827 45.55821254 -56.2243641 45.71594295 -51.734375 47.9609375 C-50.83332031 47.64253906 -49.93226562 47.32414062 -49.00390625 46.99609375 C-45.41321829 45.85925706 -43.13529784 45.9586304 -39.421875 46.3984375 C-35.41666479 46.79941418 -31.84063556 46.99938249 -27.859375 46.3984375 C-23.73414704 45.77889777 -20.73622167 46.80655865 -16.734375 47.9609375 C-15.06469528 47.3018534 -13.39829545 46.63442911 -11.734375 45.9609375 C-7.56288725 46.04969256 -3.6901444 46.6423477 0.265625 47.9609375 C1.3175 47.4659375 1.3175 47.4659375 2.390625 46.9609375 C6.5195406 45.52479294 10.01613888 46.27505553 14.265625 46.9609375 C16.0290625 47.239375 16.0290625 47.239375 17.828125 47.5234375 C18.6325 47.6678125 19.436875 47.8121875 20.265625 47.9609375 C22.47517006 45.88954154 22.47517006 45.88954154 24.265625 42.9609375 C24.20575219 39.48831432 24.00002454 37.08186311 22.078125 34.1484375 C20.19133373 32.76853448 20.19133373 32.76853448 17.3046875 32.234375 C14.265625 30.9609375 14.265625 30.9609375 12.83203125 28.45703125 C12.50074219 27.44769531 12.16945313 26.43835937 11.828125 25.3984375 C6.89840914 12.29947821 -3.11279687 3.03217255 -15.6796875 -2.8515625 C-37.019449 -11.14732656 -57.82324183 -3.07848617 -72.734375 12.9609375 Z M-82.734375 51.9609375 C-81.28169279 61.14291297 -79.06225258 70.11080052 -76.79321289 79.11669922 C-76.16474879 81.61425752 -75.54398458 84.11364866 -74.92382812 86.61328125 C-74.52649515 88.20063442 -74.1287252 89.78787828 -73.73046875 91.375 C-73.54504013 92.12278717 -73.35961151 92.87057434 -73.16856384 93.64102173 C-72.5178144 97.085238 -72.5178144 97.085238 -70.734375 99.9609375 C-68.49507614 100.05530279 -66.2527575 100.07836077 -64.01147461 100.07446289 C-63.3090715 100.07460892 -62.6066684 100.07475494 -61.88298035 100.0749054 C-59.55086222 100.07420622 -57.218823 100.06641367 -54.88671875 100.05859375 C-53.27389062 100.05672958 -51.66106193 100.05530568 -50.04823303 100.05430603 C-45.79522143 100.05048073 -41.54224376 100.04065035 -37.28924561 100.02960205 C-32.9526007 100.01938819 -28.61595033 100.01480846 -24.27929688 100.00976562 C-15.76430731 99.99902809 -7.24934537 99.98195153 1.265625 99.9609375 C3.27589708 94.14166995 5.05090828 88.31527547 6.5625 82.34765625 C6.85933685 81.18240166 6.85933685 81.18240166 7.16217041 79.99360657 C7.57404618 78.36983567 7.98400369 76.74557705 8.39208984 75.12084961 C9.01907592 72.63475409 9.65980002 70.15244072 10.30078125 67.66992188 C10.70136812 66.08354705 11.10113728 64.49696546 11.5 62.91015625 C11.7889212 61.80229012 11.7889212 61.80229012 12.0836792 60.67204285 C13.30584624 55.7785634 13.30584624 55.7785634 12.265625 50.9609375 C8.5349175 49.63713807 6.42724216 50.16524514 2.890625 51.5859375 C-1.30529229 53.14817359 -1.30529229 53.14817359 -5.171875 51.4609375 C-9.24155757 49.74738694 -9.7402039 50.02252124 -13.671875 51.4609375 C-18.20224284 53.10336693 -18.20224284 53.10336693 -20.8359375 52.3984375 C-22.13793244 51.7759698 -23.43872859 51.15098808 -24.73828125 50.5234375 C-28.03055717 49.59567286 -30.4612289 51.14320623 -33.515625 52.3984375 C-36.83676969 53.24041784 -38.71895344 51.94447158 -41.703125 50.5234375 C-44.39060696 49.77921173 -45.68286434 50.41237148 -48.234375 51.4609375 C-52.2265625 53.1015625 -52.2265625 53.1015625 -54.765625 52.3984375 C-56.078125 51.7734375 -57.390625 51.1484375 -58.703125 50.5234375 C-62.01902351 49.60518868 -64.42666786 51.12810645 -67.5 52.39453125 C-70.82969159 53.23859643 -72.88145003 52.12439021 -75.8125 50.52734375 C-78.57529965 49.71310402 -80.16281705 50.84214624 -82.734375 51.9609375 Z " fill="#ffffff" transform="translate(98.734375,17.0390625)"/>
<path d="M0 0 C1.98 0 3.96 0 6 0 C6 11.55 6 23.1 6 35 C4.02 35 2.04 35 0 35 C0 23.45 0 11.9 0 0 Z " fill="#ffffff" transform="translate(61,76)"/>
<path d="M0 0 C1.65 0.33 3.3 0.66 5 1 C3.49713785 12.76582868 1.28813893 24.36612914 -1 36 C-2.98 35.67 -4.96 35.34 -7 35 C-6.16774853 30.33620103 -5.3314802 25.67314728 -4.49145508 21.01074219 C-4.20616467 19.42402743 -3.92197954 17.83711354 -3.63891602 16.25 C-3.23222538 13.97082306 -2.82158568 11.69238814 -2.41015625 9.4140625 C-2.28407486 8.70255035 -2.15799347 7.99103821 -2.02809143 7.25796509 C-1.11387171 2.22774341 -1.11387171 2.22774341 0 0 Z " fill="#ffffff" transform="translate(100,76)"/>
<path d="M0 0 C1.32 0 2.64 0 4 0 C7.25832831 11.478202 9.04454998 23.24638598 11 35 C8.03 35.495 8.03 35.495 5 36 C4.11631703 31.51800262 3.24383509 27.03402294 2.3815918 22.54785156 C2.08679976 21.0225175 1.78897343 19.49776656 1.48803711 17.97363281 C1.05561075 15.78076656 0.63419615 13.58602403 0.21484375 11.390625 C0.01023781 10.37165131 0.01023781 10.37165131 -0.19850159 9.33209229 C-0.83453533 5.94364256 -1.22654098 3.27562873 0 0 Z " fill="#ffffff" transform="translate(24,76)"/>
<path d="M0 0 C1.65 0.33 3.3 0.66 5 1 C4.42561076 12.78488271 2.77328609 24.34602389 1 36 C-0.65 35.67 -2.3 35.34 -4 35 C-3.48087749 23.18548771 -1.88331101 11.66705248 0 0 Z " fill="#ffffff" transform="translate(87,76)"/>
<path d="M0 0 C1.32 0 2.64 0 4 0 C5.88331101 11.66705248 7.48087749 23.18548771 8 35 C5.525 35.495 5.525 35.495 3 36 C2.42502921 31.98055657 1.85555765 27.96037492 1.29101562 23.93945312 C1.09848986 22.57368312 0.90450229 21.20811831 0.70898438 19.84277344 C0.4270773 17.87230054 0.15098358 15.90099876 -0.125 13.9296875 C-0.29257812 12.74616699 -0.46015625 11.56264648 -0.6328125 10.34326172 C-0.97964839 7.1853025 -1.14142229 4.17316265 -1 1 C-0.67 0.67 -0.34 0.34 0 0 Z " fill="#ffffff" transform="translate(37,76)"/>
<path d="M0 0 C1.65 0 3.3 0 5 0 C5.09885898 8.26021669 5.07728324 16.49943184 4.625 24.75 C4.55539063 26.04421875 4.48578125 27.3384375 4.4140625 28.671875 C4.04233037 31.65975969 3.56864705 33.47486084 2 36 C0.68 35.67 -0.64 35.34 -2 35 C-1.85885325 31.22897636 -1.7111987 27.4582328 -1.5625 23.6875 C-1.52318359 22.63498047 -1.48386719 21.58246094 -1.44335938 20.49804688 C-1.16901636 13.63947152 -0.69319348 6.82901897 0 0 Z " fill="#ffffff" transform="translate(74,76)"/>
<path d="M0 0 C1.65 0 3.3 0 5 0 C5.33828768 4.33296133 5.66973748 8.66642019 6 13 C6.09539063 14.22074219 6.19078125 15.44148438 6.2890625 16.69921875 C6.75214157 22.81847793 7.12273706 28.86314714 7 35 C4.525 35.495 4.525 35.495 2 36 C-1.33884698 24.88921509 -0.13791956 11.52394529 0 0 Z " fill="#ffffff" transform="translate(49,76)"/>
</svg>
